<?xml version="1.0" standalone="no"?>
<!DOCTYPE svg PUBLIC "-//W3C//DTD SVG 20010904//EN"
 "http://www.w3.org/TR/2001/REC-SVG-20010904/DTD/svg10.dtd">
<svg version="1.0" xmlns="http://www.w3.org/2000/svg"
 width="600.000000pt" height="597.000000pt" viewBox="0 0 600.000000 597.000000"
 preserveAspectRatio="xMidYMid meet">
<g transform="translate(0.000000,597.000000) scale(0.100000,-0.100000)"
fill="#D4A843" stroke="none">
<path d="M3025 5139 c-452 -62 -821 -420 -886 -860 -18 -127 -7 -333 25 -439
74 -245 249 -480 436 -588 55 -31 54 -31 49 -37 -3 -2 -61 -13 -129 -24 -235
-38 -372 -92 -460 -180 -88 -88 -105 -137 -219 -606 -28 -115 -54 -231 -57
-256 -13 -92 29 -209 99 -279 49 -49 92 -73 202 -112 l80 -28 -28 26 c-28 26
-95 60 -111 56 -4 -2 -14 2 -20 8 -7 5 -16 7 -19 3 -4 -3 -7 -1 -7 6 0 8 -6
11 -16 7 -8 -3 -12 -2 -9 4 3 6 -2 10 -11 10 -10 0 -14 3 -11 7 4 3 -3 11 -14
17 -12 6 -20 13 -18 16 2 3 -7 17 -20 30 -61 64 -84 190 -54 304 7 28 15 60
18 71 2 11 9 36 15 55 13 45 43 180 44 202 0 9 3 15 7 12 4 -2 7 6 7 19 0 12
10 58 22 102 12 44 24 93 25 108 2 15 9 34 15 42 7 8 9 15 4 15 -5 0 -4 4 1 8
6 4 17 21 25 37 8 17 22 36 30 43 13 12 13 13 0 6 -8 -4 -4 3 10 16 14 12 36
34 49 49 13 14 20 20 17 14 -5 -9 -2 -11 9 -7 9 4 14 12 11 19 -3 8 2 16 10
19 10 4 13 1 9 -7 -4 -6 1 -3 9 7 9 11 16 16 16 11 0 -4 9 0 20 10 11 10 20
15 20 10 0 -4 7 -2 15 5 8 7 15 10 15 7 0 -3 34 6 75 18 41 13 75 21 75 18 0
-3 6 0 14 6 7 6 21 9 30 5 9 -3 16 -2 16 3 0 5 18 10 41 11 22 1 54 5 72 8 18
3 38 7 45 7 6 0 12 5 12 10 0 6 3 7 7 4 3 -4 12 2 20 13 18 26 4 54 -36 71
-16 7 -28 16 -26 20 3 3 -17 18 -44 33 -27 14 -56 37 -65 51 -10 14 -28 31
-42 37 -13 6 -24 17 -24 25 0 7 -9 18 -20 25 -11 7 -20 18 -20 25 0 7 -6 16
-12 20 -15 10 -102 133 -94 133 4 0 -5 18 -19 40 -14 22 -23 40 -20 40 2 0 -6
25 -20 55 -13 31 -21 63 -18 72 4 10 2 14 -4 10 -7 -5 -9 1 -5 15 3 11 1 19
-4 16 -10 -7 -10 -8 -21 167 -10 152 3 278 37 360 4 11 13 39 19 62 6 23 18
49 26 57 8 8 15 18 15 23 0 10 43 96 51 103 4 3 25 29 47 59 61 81 140 161
160 161 15 0 15 2 2 10 -14 9 -7 12 17 9 3 0 10 6 15 15 5 9 13 14 18 11 5 -3
14 4 20 15 6 11 17 20 24 20 8 0 19 7 26 15 7 8 17 12 24 8 6 -3 8 -2 3 2 -8
9 50 39 71 36 6 -1 12 3 12 8 0 6 19 15 43 22 23 6 56 17 72 24 17 7 55 16 85
19 30 4 73 10 95 13 58 11 244 10 238 -1 -3 -5 8 -7 26 -4 17 2 31 1 31 -3 0
-5 7 -6 15 -3 8 4 21 1 29 -5 8 -6 31 -14 52 -17 22 -2 40 -8 42 -13 2 -5 12
-6 24 -3 16 4 19 2 13 -9 -5 -8 -5 -11 -1 -7 12 10 67 -13 59 -25 -4 -6 0 -8
10 -4 9 3 23 -1 32 -9 8 -9 22 -17 30 -18 8 -1 23 -10 35 -21 11 -10 20 -14
20 -9 0 5 6 2 13 -6 7 -8 24 -23 40 -33 15 -10 27 -24 27 -32 0 -13 18 -20 43
-16 4 0 7 -3 7 -8 0 -4 19 -28 43 -52 71 -74 108 -123 148 -198 21 -39 37 -71
35 -71 -3 0 9 -26 24 -59 16 -32 30 -71 33 -87 2 -16 7 -36 10 -44 15 -37 32
-221 26 -290 -10 -107 -17 -159 -24 -171 -4 -5 -8 -20 -10 -32 -6 -47 -93
-257 -96 -232 -1 6 -4 -1 -8 -15 -4 -14 -13 -24 -19 -22 -7 1 -11 -1 -11 -5 4
-26 -2 -35 -15 -24 -18 15 -15 27 12 70 11 19 19 38 16 43 -3 4 -1 8 4 8 10 0
42 64 42 85 0 8 4 15 9 15 5 0 12 7 15 16 3 9 2 12 -4 9 -6 -4 -1 10 10 30 11
20 18 40 15 44 -2 5 0 23 5 42 19 64 22 259 7 344 -22 117 -24 125 -56 203
-16 39 -27 73 -25 76 2 3 1 4 -2 1 -4 -2 -16 15 -27 38 -12 23 -34 59 -49 81
-15 21 -25 43 -22 47 3 5 2 8 -3 7 -8 -3 -53 37 -53 47 0 3 -1 4 -3 3 -7 -6
-66 66 -61 74 3 4 -1 5 -9 2 -9 -3 -24 6 -36 22 -11 15 -21 23 -21 19 0 -4
-15 3 -32 17 -18 13 -54 34 -80 46 -27 13 -48 26 -48 28 0 3 5 2 12 -2 7 -4 8
-3 4 5 -4 6 -12 9 -17 5 -5 -3 -17 0 -26 8 -9 7 -18 12 -19 11 -2 -1 -21 5
-41 14 -41 16 -128 40 -153 41 -8 0 -28 4 -45 8 -57 14 -332 2 -345 -15 -5 -6
-13 -7 -62 -13 -10 -1 -18 -5 -18 -9 0 -7 -33 -18 -74 -26 -11 -2 -35 -13 -55
-26 -20 -12 -40 -21 -44 -19 -5 1 -6 -2 -2 -8 3 -5 -2 -10 -11 -10 -10 0 -26
-8 -36 -17 -23 -21 -48 -25 -64 -12 -13 11 -14 -6 -3 -26 4 -5 -7 -21 -24 -35
-17 -14 -28 -18 -23 -10 4 8 1 7 -7 -2 -8 -10 -19 -18 -26 -18 -6 0 -11 -5
-11 -11 0 -5 5 -7 10 -4 6 3 10 4 10 0 0 -3 -12 -10 -26 -16 -15 -5 -24 -12
-21 -15 3 -3 -9 -19 -25 -35 -17 -16 -27 -29 -23 -29 4 0 -4 -9 -19 -21 -14
-11 -26 -27 -26 -34 0 -7 -6 -20 -12 -27 -22 -22 -85 -159 -111 -238 -26 -78
-48 -243 -42 -320 2 -25 9 -76 15 -115 7 -38 12 -78 13 -87 1 -9 3 -15 6 -12
8 8 30 -77 24 -95 -3 -11 -2 -12 4 -4 6 9 15 -2 27 -37 10 -28 22 -50 27 -50
4 0 6 -6 3 -14 -3 -7 2 -16 11 -20 11 -4 15 -12 11 -23 -4 -10 -4 -14 0 -11 8
8 34 -14 27 -24 -2 -5 0 -8 5 -8 9 0 37 -50 34 -63 -1 -4 2 -6 7 -5 5 2 36
-24 68 -57 71 -71 99 -95 136 -114 15 -8 27 -20 27 -27 0 -8 6 -11 15 -8 9 4
15 0 15 -10 0 -9 8 -16 19 -16 11 0 22 -4 25 -9 7 -11 46 -2 46 10 0 5 5 9 11
9 5 0 7 -5 3 -12 -4 -7 -3 -8 5 -4 6 4 9 11 6 16 -3 4 9 23 26 41 40 43 97
151 82 156 -7 3 -9 12 -6 20 5 13 2 15 -12 9 -11 -4 -16 -4 -13 -1 4 4 -5 20
-19 36 -21 23 -34 29 -69 29 -24 0 -46 5 -49 10 -4 6 -10 8 -14 6 -14 -9 -60
48 -76 94 -9 25 -27 62 -41 83 -13 20 -21 37 -18 37 3 0 -1 10 -9 23 -31 47
-25 123 13 169 28 34 30 41 34 150 5 119 14 164 43 207 10 14 18 29 18 33 0
17 100 118 112 114 6 -3 10 0 8 7 -3 7 7 21 22 31 17 13 24 14 19 5 -4 -8 0
-5 8 6 9 11 25 29 35 40 11 12 22 39 26 60 4 22 7 45 9 50 8 47 94 133 117
119 8 -4 9 -3 5 4 -4 7 9 15 36 23 53 14 139 18 131 6 -3 -5 4 -6 16 -2 14 4
32 0 48 -10 14 -9 22 -12 18 -5 -5 8 -1 8 13 -1 12 -7 18 -17 16 -21 -3 -5 -2
-7 3 -6 28 9 83 -71 103 -150 6 -24 19 -51 30 -62 10 -10 16 -20 14 -22 -2 -3
8 -11 24 -19 15 -8 32 -21 39 -29 7 -8 13 -11 13 -6 0 5 14 -6 31 -25 49 -54
94 -113 91 -117 -2 -2 0 -7 4 -10 4 -4 4 -1 -1 7 -5 10 -4 12 4 7 6 -4 9 -11
6 -16 -3 -5 3 -23 14 -42 20 -35 36 -146 33 -235 -1 -32 2 -53 9 -53 5 0 7 -4
4 -10 -3 -5 2 -10 12 -10 15 0 16 -2 3 -10 -13 -8 -12 -10 3 -10 25 0 46 -56
42 -110 -2 -26 -22 -80 -49 -135 -25 -50 -46 -96 -46 -101 -1 -14 -44 -60 -70
-74 -12 -7 -20 -8 -17 -3 3 4 -20 9 -51 11 -31 2 -54 1 -51 -3 9 -8 -54 -73
-65 -67 -5 3 -6 0 -2 -6 3 -6 0 -14 -8 -19 -8 -4 -19 -19 -24 -33 -8 -21 -4
-33 22 -70 17 -25 31 -47 32 -50 4 -20 18 -39 25 -34 5 3 6 -3 2 -12 -5 -14
-3 -16 11 -11 9 4 15 3 12 -2 -7 -10 16 -21 35 -17 41 8 69 19 69 27 0 5 7 9
15 9 8 0 15 4 15 8 0 11 53 7 57 -5 2 -5 -4 -16 -14 -24 -13 -11 -15 -11 -9 0
6 8 0 7 -18 -4 -14 -10 -26 -22 -26 -27 0 -5 -5 -6 -12 -2 -6 4 -8 3 -4 -4 3
-6 2 -13 -4 -17 -6 -4 -4 -12 6 -23 18 -17 29 -21 79 -28 28 -3 113 -18 180
-30 17 -3 36 -6 43 -6 6 -1 12 -5 12 -9 0 -5 7 -5 17 -2 12 5 14 3 8 -7 -5 -9
-4 -11 4 -6 7 4 26 1 44 -7 18 -9 39 -17 47 -19 8 -2 18 -7 22 -13 4 -5 11
-10 15 -11 22 -2 42 -17 36 -27 -3 -5 -2 -7 4 -4 6 4 28 -13 49 -36 40 -43 99
-127 89 -127 -3 0 0 -10 6 -22 14 -26 70 -238 98 -371 6 -27 18 -69 26 -94 9
-25 14 -48 11 -50 -2 -3 2 -21 10 -40 9 -19 13 -37 10 -40 -2 -3 0 -17 5 -32
15 -37 14 -154 -1 -193 -21 -57 -44 -97 -57 -102 -7 -3 -13 0 -13 6 0 6 -3 8
-6 5 -4 -4 -1 -15 7 -24 7 -10 10 -15 5 -11 -4 3 -23 -9 -42 -27 -19 -18 -48
-36 -64 -40 -17 -4 -30 -11 -30 -16 0 -6 -5 -7 -11 -4 -5 4 -19 -1 -29 -10
-11 -10 -31 -17 -44 -17 -14 0 -23 -4 -21 -9 3 -4 -2 -12 -10 -17 -18 -9 -11
-37 11 -46 8 -3 101 -6 207 -6 187 -1 226 -7 213 -28 -3 -5 1 -15 9 -22 12
-10 14 -8 10 9 -2 11 1 24 7 27 7 4 8 2 4 -4 -4 -7 -1 -12 8 -12 9 0 16 -8 17
-17 0 -12 2 -13 6 -5 4 10 9 9 20 -5 8 -10 11 -11 7 -3 -4 8 8 -1 27 -21 57
-60 74 -83 74 -99 0 -8 6 -14 13 -12 8 1 11 -2 7 -8 -3 -5 -3 -16 2 -23 4 -6
9 -19 11 -27 6 -30 1 -189 -7 -218 -10 -34 -52 -102 -75 -121 -8 -7 -13 -18
-9 -24 3 -6 1 -7 -5 -3 -6 4 -21 -3 -32 -14 -18 -18 -48 -34 -85 -46 -57 -19
-161 -23 -527 -23 -294 0 -425 4 -429 11 -19 31 16 33 450 31 446 -3 502 1
528 36 7 9 13 12 13 8 0 -8 19 5 48 35 27 27 43 47 41 54 0 4 3 10 8 13 28 21
45 77 47 154 1 70 -3 91 -26 139 -45 97 -122 162 -205 174 -69 9 -653 13 -708
4 -81 -14 -83 -14 -135 -29 -56 -16 -81 -22 -97 -23 -7 -1 -13 -5 -13 -9 0 -5
-7 -6 -15 -3 -8 4 -15 2 -15 -3 0 -5 -10 -10 -22 -10 -13 -1 -24 -7 -26 -13
-2 -5 -8 -8 -13 -4 -5 3 -9 1 -9 -4 0 -5 -6 -9 -12 -9 -7 0 -43 -14 -81 -32
-37 -17 -69 -30 -71 -28 -2 1 -13 -6 -23 -16 -11 -9 -23 -14 -28 -10 -4 5 -5
3 -2 -3 4 -7 0 -15 -9 -18 -10 -4 -13 -2 -7 7 4 6 -7 1 -24 -13 -16 -14 -40
-32 -53 -40 -13 -8 -35 -24 -49 -36 -14 -11 -41 -26 -59 -34 -18 -7 -30 -15
-27 -18 3 -3 -14 -15 -37 -26 -24 -12 -61 -34 -83 -49 -22 -15 -46 -27 -53
-27 -7 0 -10 -5 -6 -12 4 -6 3 -8 -4 -4 -6 3 -33 -7 -59 -23 -26 -16 -67 -35
-90 -42 -23 -6 -53 -23 -65 -37 l-23 -24 25 7 c109 32 264 115 465 248 167
110 363 210 500 256 164 54 254 63 605 59 307 -3 316 -4 368 -27 63 -29 127
-97 144 -155 15 -55 15 -151 0 -204 -9 -28 -32 -62 -65 -97 -83 -85 -83 -85
-597 -85 -424 0 -437 -1 -455 -20 -15 -17 -16 -24 -7 -45 6 -13 22 -27 34 -30
13 -3 223 -5 468 -3 444 3 445 3 505 27 84 34 174 124 204 206 29 76 32 195 7
277 -19 66 -81 148 -141 190 -80 54 -131 63 -342 62 -106 0 -193 1 -193 2 0 1
35 14 79 29 138 46 217 113 260 223 35 89 29 149 -49 475 -39 160 -77 315 -86
342 -44 137 -132 242 -246 295 -81 38 -223 75 -343 91 -52 7 -95 16 -95 21 0
4 4 8 9 8 23 0 164 106 230 172 401 404 400 1053 -2 1452 -142 140 -304 230
-492 275 -108 25 -263 34 -360 20z m345 -120 c108 -25 265 -101 358 -174 436
-341 471 -994 76 -1388 -59 -59 -226 -177 -250 -177 -16 0 -75 73 -101 124
l-20 39 52 52 52 52 55 -5 c50 -4 58 -2 91 27 20 18 41 49 48 69 6 20 29 73
50 117 64 130 62 210 -6 263 -24 19 -25 25 -25 114 0 97 -16 170 -51 239 -25
49 -109 140 -172 186 -64 46 -62 43 -86 123 -39 126 -120 190 -252 198 -94 5
-175 -16 -225 -60 -34 -30 -84 -113 -84 -140 0 -50 -23 -85 -80 -127 -73 -53
-145 -138 -176 -209 -29 -64 -48 -176 -42 -255 4 -49 1 -60 -14 -68 -34 -18
-51 -68 -45 -131 4 -43 20 -88 67 -184 59 -120 64 -127 106 -146 25 -11 58
-18 73 -16 22 2 36 -6 65 -37 l37 -39 -23 -43 c-13 -24 -42 -66 -66 -93 l-43
-49 -79 50 c-188 119 -324 298 -395 519 -37 113 -46 323 -21 450 70 342 328
619 663 711 154 42 301 45 463 8z m577 -1436 c-4 -3 1 -15 10 -26 17 -18 17
-20 -6 -38 -13 -10 -20 -19 -15 -19 4 0 -1 -7 -12 -16 -10 -8 -12 -12 -4 -8 8
4 5 -3 -7 -15 -13 -12 -23 -26 -23 -31 0 -5 -6 -7 -13 -4 -7 2 -26 -13 -42
-35 -17 -21 -33 -37 -37 -34 -5 2 -8 0 -8 -5 0 -16 -66 -51 -80 -42 -7 5 -20
6 -29 3 -10 -4 -9 0 4 10 11 8 22 14 25 13 3 0 16 9 30 22 13 12 28 22 32 22
5 0 6 5 3 10 -4 6 -2 9 3 8 6 -2 35 23 66 55 31 32 50 55 43 52 -6 -3 -2 2 11
11 12 9 22 23 22 31 0 8 5 11 12 7 7 -5 9 -2 5 8 -5 15 0 28 11 28 3 0 2 -3
-1 -7z"/>
<path d="M2860 4956 c0 -2 8 -10 18 -17 15 -13 16 -12 3 4 -13 16 -21 21 -21
13z"/>
<path d="M2886 4841 c-4 -5 -2 -12 3 -15 5 -4 12 -2 15 3 4 5 2 12 -3 15 -5 4
-12 2 -15 -3z"/>
<path d="M3406 4828 c3 -5 10 -6 15 -3 13 9 11 12 -6 12 -8 0 -12 -4 -9 -9z"/>
<path d="M3709 4818 c-8 -27 -6 -38 5 -29 7 6 17 7 22 3 4 -4 2 1 -5 11 -12
16 -20 21 -22 15z"/>
<path d="M2596 4797 c3 -10 9 -15 12 -12 3 3 0 11 -7 18 -10 9 -11 8 -5 -6z"/>
<path d="M3795 4720 c3 -5 11 -10 16 -10 6 0 7 5 4 10 -3 6 -11 10 -16 10 -6
0 -7 -4 -4 -10z"/>
<path d="M3855 4659 c-4 -6 -5 -12 -2 -15 2 -3 7 2 10 11 7 17 1 20 -8 4z"/>
<path d="M2436 4622 c-3 -5 1 -9 9 -9 8 0 12 4 9 9 -3 4 -7 8 -9 8 -2 0 -6 -4
-9 -8z"/>
<path d="M2795 4611 c-3 -5 -2 -12 3 -15 5 -3 9 1 9 9 0 17 -3 19 -12 6z"/>
<path d="M3583 4603 c4 -6 1 -14 -5 -16 -10 -4 -10 -6 0 -6 7 -1 10 -6 6 -13
-4 -6 -3 -8 4 -5 12 8 10 32 -3 44 -4 4 -5 3 -2 -4z"/>
<path d="M2737 4589 c7 -7 15 -10 18 -7 3 3 -2 9 -12 12 -14 6 -15 5 -6 -5z"/>
<path d="M2736 4558 c3 -5 10 -6 15 -3 13 9 11 12 -6 12 -8 0 -12 -4 -9 -9z"/>
<path d="M3643 4515 c0 -8 4 -12 9 -9 5 3 6 10 3 15 -9 13 -12 11 -12 -6z"/>
<path d="M2670 4500 c-8 -5 -12 -12 -9 -15 4 -3 12 1 19 10 14 17 11 19 -10 5z"/>
<path d="M3950 4471 c0 -5 7 -12 16 -15 14 -5 15 -4 4 9 -14 17 -20 19 -20 6z"/>
<path d="M3725 4439 c-4 -6 -5 -12 -2 -15 2 -3 7 2 10 11 7 17 1 20 -8 4z"/>
<path d="M4011 4224 c0 -11 3 -14 6 -6 3 7 2 16 -1 19 -3 4 -6 -2 -5 -13z"/>
<path d="M2306 3877 c3 -10 9 -15 12 -12 3 3 0 11 -7 18 -10 9 -11 8 -5 -6z"/>
<path d="M3825 3759 c-4 -6 -5 -12 -2 -15 2 -3 7 2 10 11 7 17 1 20 -8 4z"/>
<path d="M3929 3723 c-13 -16 -12 -17 4 -4 16 13 21 21 13 21 -2 0 -10 -8 -17
-17z"/>
<path d="M3870 3640 c-9 -6 -10 -10 -3 -10 6 0 15 5 18 10 8 12 4 12 -15 0z"/>
<path d="M2600 3591 c0 -6 4 -13 10 -16 6 -3 7 1 4 9 -7 18 -14 21 -14 7z"/>
<path d="M3481 3447 c2 -2 11 -8 20 -15 12 -9 16 -9 16 1 0 7 -9 14 -20 14
-11 1 -18 1 -16 0z"/>
<path d="M3610 3386 c4 -4 16 -4 26 2 16 9 14 10 -8 9 -15 -1 -23 -6 -18 -11z"/>
<path d="M2743 3345 c0 -8 4 -12 9 -9 5 3 6 10 3 15 -9 13 -12 11 -12 -6z"/>
<path d="M3619 5078 c7 -9 21 -16 31 -15 14 1 16 4 8 14 -12 15 -22 17 -13 3
9 -14 -8 -12 -25 3 -12 10 -12 9 -1 -5z"/>
<path d="M2485 4989 c-3 -4 2 -6 10 -5 21 3 28 13 10 13 -9 0 -18 -4 -20 -8z"/>
<path d="M3906 4903 c-6 -14 -5 -15 5 -6 7 7 10 15 7 18 -3 3 -9 -2 -12 -12z"/>
<path d="M3966 4838 c3 -5 10 -6 15 -3 13 9 11 12 -6 12 -8 0 -12 -4 -9 -9z"/>
<path d="M3114 4809 c-42 -5 -134 -50 -134 -66 0 -2 5 -1 10 2 6 4 0 -10 -14
-29 -13 -19 -27 -52 -31 -73 -4 -21 -12 -44 -18 -52 -10 -12 -9 -13 3 -7 8 4
6 0 -4 -8 -11 -9 -17 -16 -12 -16 4 0 -4 -11 -18 -25 -14 -14 -28 -24 -30 -23
-3 2 -12 -6 -21 -17 -9 -11 -13 -13 -9 -5 10 22 -76 -70 -134 -142 -7 -9 -15
-24 -17 -34 -2 -11 -11 -44 -18 -74 -13 -50 -16 -151 -6 -191 3 -8 14 -25 26
-38 l21 -23 15 24 c9 13 17 52 18 93 2 51 9 80 26 106 12 20 19 39 16 43 -3 3
9 12 28 20 19 9 30 15 24 16 -5 0 3 7 20 16 31 16 149 29 140 15 -2 -5 4 -11
15 -14 13 -3 18 -1 14 6 -3 7 2 3 10 -7 9 -11 16 -16 16 -12 0 5 6 4 13 -2 6
-6 40 -16 74 -23 64 -13 117 -4 169 28 38 24 139 38 150 21 3 -4 13 -8 23 -8
26 0 78 -59 96 -109 8 -24 15 -74 15 -112 0 -56 3 -70 20 -82 11 -8 17 -18 12
-23 -4 -4 1 -2 10 5 33 25 48 72 48 150 0 84 -15 145 -51 207 -32 55 -101 134
-117 134 -7 0 -10 5 -7 10 4 6 3 10 -2 9 -21 -4 -34 2 -27 13 4 6 3 8 -4 4 -9
-6 -25 10 -60 60 -11 16 -11 15 -2 -6 10 -22 9 -23 -3 -8 -7 10 -19 43 -26 74
-7 32 -17 62 -22 68 -5 6 -20 26 -35 44 -14 17 -32 32 -39 32 -7 0 -15 5 -17
10 -5 15 -96 27 -154 19z m140 -43 c45 -19 81 -69 101 -141 20 -71 32 -88 105
-141 75 -56 137 -125 161 -181 41 -96 44 -250 6 -281 -11 -9 -12 0 -9 50 7 91
-12 158 -58 211 -74 84 -151 94 -273 36 -86 -40 -138 -39 -231 6 -118 57 -199
44 -279 -44 -43 -48 -67 -121 -67 -205 0 -55 -1 -58 -15 -40 -22 30 -19 152 6
227 27 79 74 141 160 208 75 59 103 101 113 169 8 53 47 107 90 126 41 17 148
18 190 0z"/>
<path d="M2926 4481 c-3 -5 1 -14 8 -20 10 -9 16 -9 21 -1 4 6 1 9 -7 8 -7 -2
-12 3 -10 10 2 14 -4 16 -12 3z"/>
<path d="M2834 4388 l-19 -23 25 20 c14 11 27 21 29 22 2 2 0 3 -6 3 -5 0 -18
-10 -29 -22z"/>
<path d="M4060 4760 c-9 -6 -10 -10 -3 -10 6 0 15 5 18 10 8 12 4 12 -15 0z"/>
<path d="M2264 4749 c-3 -6 -2 -15 3 -20 5 -5 9 -1 9 11 0 23 -2 24 -12 9z"/>
<path d="M4051 4694 c0 -11 3 -14 6 -6 3 7 2 16 -1 19 -3 4 -6 -2 -5 -13z"/>
<path d="M2164 4598 c-4 -7 -4 -10 1 -6 4 4 15 2 24 -5 14 -11 14 -10 2 6 -16
20 -18 21 -27 5z"/>
<path d="M2873 4276 c1 -6 -4 -10 -11 -8 -8 1 -11 -2 -8 -7 5 -8 -30 -25 -47
-22 -5 1 -6 -3 -3 -8 3 -4 -1 -29 -10 -55 -23 -67 -17 -436 8 -482 10 -17 14
-34 11 -38 -4 -3 0 -6 7 -6 7 0 10 -3 7 -6 -7 -7 36 -67 86 -121 17 -18 43
-35 59 -38 16 -4 25 -11 22 -17 -4 -6 -1 -8 7 -6 8 3 26 -1 41 -8 31 -16 150
-35 142 -23 -2 4 11 5 30 2 19 -3 36 -1 40 6 4 6 18 11 32 11 13 0 24 4 24 9
0 5 16 15 35 21 19 6 49 27 67 45 17 19 36 31 42 28 6 -3 8 -2 3 2 -4 5 3 20
16 34 13 14 34 51 47 81 22 51 24 71 28 270 3 211 3 216 -21 262 -13 26 -20
45 -15 42 4 -3 8 -3 8 -1 0 3 -18 14 -40 25 -51 25 -94 21 -173 -16 -35 -17
-77 -32 -93 -33 -43 -4 -145 12 -138 22 4 8 -31 14 -38 7 -2 -2 -16 7 -33 18
-32 23 -136 30 -132 10z m153 -48 c61 -29 78 -33 154 -33 75 1 93 5 150 33 78
38 99 40 138 7 50 -42 54 -63 50 -296 -3 -213 -3 -214 -32 -273 -37 -76 -96
-135 -172 -172 -52 -25 -70 -29 -149 -29 -79 0 -97 4 -149 29 -76 37 -140 101
-174 174 -26 55 -27 65 -30 257 -4 226 1 258 53 304 46 40 75 39 161 -1z m-85
-715 c13 -16 12 -17 -3 -4 -10 7 -18 15 -18 17 0 8 8 3 21 -13z"/>
<path d="M3317 3559 c7 -7 15 -10 18 -7 3 3 -2 9 -12 12 -14 6 -15 5 -6 -5z"/>
<path d="M3016 3531 c-4 -5 -2 -12 3 -15 5 -4 12 -2 15 3 4 5 2 12 -3 15 -5 4
-12 2 -15 -3z"/>
<path d="M3315 4270 c-3 -6 1 -7 9 -4 18 7 21 14 7 14 -6 0 -13 -4 -16 -10z"/>
<path d="M2627 3966 c-49 -18 -48 -84 3 -177 16 -29 26 -57 23 -63 -3 -5 -1
-6 5 -2 8 5 23 -30 26 -65 1 -9 31 -34 45 -37 19 -4 43 19 37 35 -3 8 -1 11 4
8 6 -3 10 -1 10 4 0 6 -4 11 -9 11 -15 0 -31 85 -31 163 0 64 -3 76 -22 94
-37 33 -60 41 -91 29z m85 -146 c3 -52 12 -114 21 -137 27 -78 0 -44 -53 65
-77 158 -79 218 -6 183 l33 -16 5 -95z"/>
<path d="M3659 3961 c-66 -30 -69 -36 -69 -123 0 -44 -7 -104 -16 -133 -14
-50 -14 -56 2 -79 20 -32 22 -32 57 -1 25 23 37 47 39 83 1 6 5 12 9 12 10 0
82 151 80 168 0 6 -2 19 -3 27 -1 8 -6 15 -12 15 -6 0 -5 4 3 9 11 7 7 13 -17
25 -17 9 -32 16 -34 15 -2 0 -19 -8 -39 -18z m59 -23 c21 -21 13 -65 -27 -145
-22 -43 -47 -95 -55 -115 -10 -26 -21 -38 -35 -38 -19 0 -19 1 -4 38 9 21 18
80 21 137 l5 101 36 16 c46 20 45 20 59 6z"/>
<path d="M2245 3520 c-8 -13 3 -30 18 -30 8 0 7 3 -2 9 -7 5 -10 14 -7 20 4 6
5 11 2 11 -3 0 -8 -4 -11 -10z"/>
<path d="M2937 3422 c-15 -15 -27 -33 -27 -40 0 -7 -4 -12 -10 -12 -5 0 -10
-7 -10 -15 0 -8 -5 -15 -11 -15 -5 0 -7 -5 -3 -12 5 -8 2 -9 -10 -5 -10 4 -15
3 -11 -3 3 -5 -16 -31 -42 -56 -26 -26 -41 -44 -33 -40 10 5 10 3 -2 -6 -15
-13 -17 -45 -19 -303 l-2 -288 23 -12 c28 -15 133 5 200 39 18 8 37 13 43 9 6
-3 7 -1 3 5 -5 8 0 12 13 12 12 0 21 5 21 11 0 5 4 8 9 4 5 -3 13 0 16 6 4 5
14 8 22 5 8 -3 12 -2 10 2 -3 4 5 16 16 27 11 11 17 14 13 8 -4 -7 -3 -13 3
-13 5 0 12 8 16 19 3 10 21 26 39 36 20 11 32 24 29 32 -3 7 0 13 6 13 16 0
101 91 101 107 0 7 9 20 19 30 11 10 22 30 26 46 4 15 12 27 17 27 6 0 8 7 5
15 -4 8 -2 17 3 20 6 4 10 15 10 26 0 10 4 19 8 19 10 0 32 81 32 115 0 29
-34 98 -44 88 -3 -3 -6 1 -6 10 0 8 -3 17 -7 19 -5 2 -15 17 -23 33 -16 31
-48 43 -78 29 -61 -26 -156 -28 -253 -4 -49 12 -86 26 -83 31 10 17 -2 9 -29
-19z m113 -43 c36 -10 85 -18 110 -18 42 -1 134 17 172 33 11 5 18 1 22 -12 4
-11 24 -47 46 -81 l39 -61 -20 -67 c-86 -280 -310 -479 -606 -538 l-33 -7 0
277 0 277 54 59 c30 32 69 83 88 113 23 40 37 54 48 49 8 -3 44 -14 80 -24z"/>
<path d="M2936 3312 c-3 -5 1 -9 9 -9 8 0 12 4 9 9 -3 4 -7 8 -9 8 -2 0 -6 -4
-9 -8z"/>
<path d="M2927 3272 c-14 -15 -14 -19 -3 -19 8 0 14 5 13 11 -1 6 4 10 11 8 8
-1 11 2 7 8 -8 13 -9 13 -28 -8z"/>
<path d="M2853 3207 c0 -8 6 -14 14 -14 9 0 10 4 2 14 -6 7 -12 13 -14 13 -1
0 -2 -6 -2 -13z"/>
<path d="M3125 2840 c-3 -5 -1 -11 4 -14 5 -4 12 -2 16 4 4 6 12 7 18 4 7 -4
8 -3 4 1 -11 12 -36 15 -42 5z"/>
<path d="M2329 3423 c-13 -16 -12 -17 4 -4 9 7 17 15 17 17 0 8 -8 3 -21 -13z"/>
<path d="M3905 3349 c-4 -6 -14 -8 -24 -4 -13 5 -14 4 -3 -6 10 -11 15 -10 29
4 10 9 14 17 11 17 -4 0 -10 -5 -13 -11z"/>
<path d="M2490 3286 c0 -2 8 -10 18 -17 15 -13 16 -12 3 4 -13 16 -21 21 -21
13z"/>
<path d="M3858 3233 c7 -3 16 -2 19 1 4 3 -2 6 -13 5 -11 0 -14 -3 -6 -6z"/>
<path d="M3501 3169 c-11 -12 -22 -33 -26 -47 -9 -40 -58 -142 -68 -142 -4 0
-6 -4 -3 -9 3 -5 -1 -14 -9 -21 -8 -7 -15 -17 -15 -23 0 -6 -12 -24 -27 -40
-16 -17 -21 -26 -13 -22 10 5 8 1 -4 -13 -21 -25 -30 -28 -21 -9 3 6 0 4 -7
-7 -32 -46 -88 -97 -100 -90 -7 4 -10 4 -6 -1 7 -7 -66 -69 -82 -70 -3 -1 -21
-11 -40 -23 -19 -12 -66 -31 -105 -43 -38 -11 -81 -24 -95 -29 -14 -5 -41 -11
-61 -15 -53 -8 -61 -23 -60 -115 1 -107 8 -120 70 -117 27 1 47 5 45 8 -4 7
50 32 62 29 4 -1 10 4 14 10 4 7 19 13 33 13 14 1 24 4 22 7 -2 3 3 11 11 18
8 7 14 9 14 5 0 -4 5 0 11 10 5 9 16 17 24 17 8 0 17 5 21 12 5 7 3 8 -7 3 -8
-5 -5 1 5 13 21 24 31 29 20 10 -4 -7 11 6 32 29 34 36 41 40 57 28 16 -12 13
-16 -33 -61 -28 -27 -60 -52 -71 -56 -10 -4 -19 -11 -19 -16 0 -11 -91 -68
-103 -64 -4 1 -5 -3 -1 -9 5 -9 2 -10 -9 -6 -10 3 -17 2 -17 -3 0 -6 -3 -9 -7
-8 -8 1 -24 -4 -71 -23 -13 -5 -32 -9 -43 -9 -42 0 -61 -33 -61 -106 0 -38 5
-80 10 -94 6 -14 11 -20 11 -13 1 7 8 10 16 7 8 -4 21 -2 28 4 6 6 17 11 22
12 39 9 125 52 125 63 0 4 10 12 23 17 12 6 29 15 38 22 9 6 25 8 35 4 17 -7
15 -10 -16 -37 -49 -42 -51 -43 -87 -58 -18 -7 -33 -17 -33 -22 0 -5 -3 -8 -7
-7 -5 1 -18 -3 -31 -10 -12 -7 -28 -10 -35 -6 -6 4 -9 4 -5 -1 4 -4 -11 -17
-33 -28 -22 -11 -47 -31 -56 -44 -15 -22 -14 -25 6 -47 12 -12 19 -25 16 -28
-6 -5 30 -18 49 -17 5 1 12 -5 16 -12 6 -9 28 -7 99 11 49 13 88 27 85 32 -5
8 10 12 34 9 6 -1 12 2 12 7 0 6 11 13 24 16 14 3 39 18 57 33 18 16 29 21 24
14 -10 -18 55 27 72 49 7 8 13 12 13 7 0 -4 17 10 37 30 21 21 36 41 35 46 -1
4 4 7 11 7 6 0 32 27 57 59 25 32 51 56 58 53 9 -3 10 -8 1 -18 -9 -11 -8 -14
2 -14 9 0 10 -3 3 -8 -6 -4 -19 -22 -29 -39 -11 -18 -25 -33 -33 -33 -7 0 -11
-4 -8 -9 4 -5 -6 -19 -21 -31 -16 -12 -22 -18 -14 -14 9 5 12 3 7 -4 -4 -7
-11 -12 -16 -12 -10 0 -24 -11 -85 -62 -18 -16 -38 -28 -44 -28 -6 0 -11 -4
-11 -9 0 -8 -52 -34 -78 -38 -8 -1 -17 -5 -20 -9 -4 -4 1 -4 11 -1 35 13 16
-4 -23 -19 -44 -18 -49 -45 -15 -70 28 -21 48 -17 90 16 20 16 51 32 69 35 58
10 157 14 152 6 -3 -4 5 -7 17 -7 24 2 100 36 105 49 5 9 74 41 85 38 5 -1 6
2 3 7 -2 4 4 14 16 21 16 10 19 10 12 -1 -4 -7 4 -3 18 10 13 12 29 22 35 22
6 0 16 7 23 15 7 9 15 13 18 11 3 -3 17 3 32 14 16 11 33 20 39 20 6 0 11 5
11 10 0 6 7 10 15 10 8 0 15 4 15 9 0 5 17 15 38 22 20 6 52 24 71 39 37 31
64 33 70 4 2 -10 0 -16 -5 -12 -4 5 -22 -3 -39 -17 -18 -13 -39 -26 -46 -27
-8 -2 -21 -11 -30 -20 -9 -10 -20 -18 -24 -18 -5 0 -17 -8 -28 -17 -11 -10
-17 -12 -13 -5 7 11 4 12 -13 3 -11 -7 -21 -16 -21 -21 0 -7 -32 -23 -52 -25
-3 0 -10 -4 -15 -9 -5 -5 -2 -6 6 -1 10 6 12 4 7 -4 -5 -7 -14 -10 -22 -7 -9
3 -11 0 -7 -11 4 -10 2 -14 -4 -10 -14 9 -11 -17 5 -35 14 -17 82 -40 132 -44
94 -9 144 -20 148 -33 4 -12 -10 -13 -89 -7 -52 5 -102 8 -111 8 -10 -1 -18 4
-18 9 0 6 -4 8 -9 5 -5 -3 -41 7 -80 23 -65 27 -119 32 -105 10 3 -5 -2 -9
-10 -9 -20 0 -66 -39 -66 -56 0 -7 7 -20 16 -28 8 -9 12 -16 8 -16 -4 0 2 -8
12 -17 10 -10 20 -27 22 -38 2 -11 10 -30 19 -43 14 -23 17 -23 146 -20 128 4
153 9 207 44 23 15 23 15 6 0 -27 -22 -14 -20 31 4 21 11 44 20 51 20 7 0 10
5 7 11 -4 6 -1 9 6 8 8 -1 31 6 52 15 21 9 42 14 46 11 5 -3 11 2 15 10 3 8
10 15 16 15 6 0 8 -6 4 -12 -4 -7 5 -2 20 12 24 21 26 22 20 5 -6 -16 -2 -14
21 8 15 15 34 27 41 27 8 0 14 5 14 10 0 6 11 15 24 21 13 6 37 34 53 63 25
45 28 61 28 141 0 50 -4 99 -9 110 -10 21 -11 26 -22 93 -4 23 -9 42 -13 42
-3 0 -7 10 -8 23 -2 34 -81 354 -105 427 -26 80 -41 103 -71 107 -28 4 -42
-21 -52 -88 -7 -52 -13 -82 -15 -89 -1 -3 -2 -8 -1 -12 1 -10 -44 -125 -68
-175 -12 -23 -21 -46 -21 -52 0 -18 -52 -71 -62 -64 -7 3 -8 1 -4 -6 6 -9 11
-9 24 1 13 11 12 8 -2 -14 -9 -14 -24 -29 -32 -32 -8 -3 -14 -10 -14 -16 0
-17 -88 -102 -99 -96 -6 4 -8 -2 -6 -14 2 -11 1 -19 -3 -17 -4 1 -23 -10 -42
-25 -44 -33 -72 -39 -75 -15 -2 9 3 17 10 17 7 0 19 8 26 17 8 9 32 29 53 45
21 15 36 28 32 28 -4 0 9 14 29 31 19 17 35 36 35 43 0 6 11 24 25 39 30 32
115 194 115 219 0 10 5 18 10 18 6 0 10 8 10 19 0 10 7 37 15 61 16 46 23 84
30 180 6 72 -7 110 -37 110 -10 0 -18 5 -18 11 0 5 -4 7 -10 4 -5 -3 -10 -2
-10 3 0 5 -6 9 -12 10 -7 1 -28 5 -47 8 -22 4 -32 3 -27 -4 3 -5 -1 -12 -9
-16 -9 -3 -15 -18 -15 -34 0 -79 -85 -332 -111 -332 -6 0 -8 -4 -4 -9 3 -6 -5
-20 -17 -32 -13 -12 -16 -18 -8 -14 8 5 4 -5 -10 -20 -75 -87 -88 -98 -105
-92 -15 6 -14 10 9 38 14 17 26 34 26 39 0 5 9 7 19 5 14 -3 18 1 14 11 -3 8
1 22 10 32 20 23 108 204 96 196 -7 -4 -7 0 0 12 16 29 41 146 41 191 0 26 -6
46 -18 56 -10 10 -21 15 -23 13 -2 -2 -26 1 -54 8 -77 20 -105 6 -120 -61 -2
-10 -13 -47 -24 -82 -11 -35 -17 -69 -14 -74 3 -6 1 -7 -5 -3 -7 4 -12 1 -12
-8 0 -8 -6 -30 -14 -48 -21 -49 -29 -72 -28 -80 1 -5 -2 -8 -7 -8 -8 0 -24
-37 -22 -52 1 -5 -3 -8 -9 -8 -5 0 -10 -5 -10 -12 0 -11 -58 -108 -71 -118 -3
-3 -12 -16 -19 -30 -23 -45 -82 -110 -93 -103 -5 3 -7 2 -4 -4 9 -15 -79 -107
-96 -100 -9 3 -18 0 -21 -8 -3 -10 0 -12 11 -8 13 5 12 2 -3 -14 -10 -11 -22
-20 -25 -19 -3 1 -23 -16 -44 -37 -36 -36 -73 -46 -67 -18 1 7 -3 10 -10 6 -7
-3 -4 0 6 7 11 7 27 20 35 28 9 8 36 28 59 44 23 16 42 33 42 38 0 5 22 30 48
56 27 26 65 68 84 94 20 26 39 45 42 42 3 -2 4 -1 1 2 -4 7 23 64 36 74 19 16
108 176 108 195 1 3 7 18 15 34 9 16 13 31 10 34 -3 3 -1 13 4 24 29 55 47
116 57 184 6 47 6 47 -40 78 -25 17 -48 31 -50 31 -2 0 -13 -9 -24 -21z m49
-24 c7 -8 18 -15 26 -15 24 0 23 -16 -7 -121 -95 -327 -292 -606 -553 -781
-78 -52 -215 -128 -231 -128 -3 0 -5 35 -5 78 l0 77 60 12 c33 6 93 28 133 47
76 38 227 151 252 190 19 28 9 61 -20 74 -22 10 -32 5 -97 -50 -100 -83 -160
-121 -246 -152 -40 -14 -75 -26 -78 -26 -2 0 -4 40 -4 90 l0 90 28 5 c167 35
256 69 359 138 63 42 167 139 211 197 48 63 106 181 136 273 7 21 20 22 36 2z
m225 -60 c80 -10 79 -8 56 -122 -33 -160 -85 -270 -176 -373 -25 -28 -45 -59
-45 -70 0 -24 26 -50 50 -50 39 0 149 140 203 259 32 71 77 236 77 282 0 35 9
36 78 7 l54 -23 -6 -82 c-13 -161 -70 -321 -161 -459 -53 -79 -138 -167 -198
-202 -51 -30 -47 -94 6 -100 35 -4 166 104 240 199 105 136 186 329 204 490
l9 74 26 -50 c33 -65 46 -107 124 -430 75 -307 79 -355 41 -432 -26 -50 -72
-97 -111 -113 -12 -5 -108 -43 -215 -85 l-195 -76 -113 2 c-110 2 -113 3 -113
25 0 12 -15 43 -34 68 l-35 45 41 24 41 24 72 -28 c112 -44 279 -64 326 -39
25 14 26 66 2 78 -10 5 -56 12 -103 15 -93 6 -190 26 -190 39 0 4 6 8 13 9 6
0 80 40 162 89 137 81 150 91 153 119 3 25 -2 33 -23 43 -22 10 -32 9 -54 -3
-143 -83 -309 -179 -415 -242 -109 -63 -134 -74 -154 -66 -60 23 -159 5 -235
-43 -39 -25 -52 -29 -70 -21 -22 10 -22 11 8 24 145 65 285 180 373 306 27 39
29 79 3 93 -36 19 -50 10 -105 -62 -86 -114 -208 -203 -364 -269 -106 -44
-157 -50 -204 -24 -60 32 -50 48 66 103 289 138 524 372 676 673 43 85 101
244 120 332 10 44 17 56 29 53 9 -3 39 -7 66 -11z"/>
<path d="M3505 3009 c-4 -6 -5 -12 -2 -15 2 -3 7 2 10 11 7 17 1 20 -8 4z"/>
<path d="M3500 2955 c-7 -9 -11 -17 -9 -20 3 -2 10 5 17 15 14 24 10 26 -8 5z"/>
<path d="M3339 2713 c-13 -16 -12 -17 4 -4 16 13 21 21 13 21 -2 0 -10 -8 -17
-17z"/>
<path d="M3350 2696 c0 -2 8 -10 18 -17 15 -13 16 -12 3 4 -13 16 -21 21 -21
13z"/>
<path d="M3262 2581 c-11 -7 -11 -9 0 -14 9 -3 15 1 15 9 0 8 -1 14 -1 14 -1
0 -7 -4 -14 -9z"/>
<path d="M2994 2514 c-18 -14 -18 -15 4 -4 12 6 22 13 22 15 0 8 -5 6 -26 -11z"/>
<path d="M3053 2305 c0 -8 4 -12 9 -9 5 3 6 10 3 15 -9 13 -12 11 -12 -6z"/>
<path d="M2966 2247 c3 -10 9 -15 12 -12 3 3 0 11 -7 18 -10 9 -11 8 -5 -6z"/>
<path d="M2869 2233 c-13 -16 -12 -17 4 -4 16 13 21 21 13 21 -2 0 -10 -8 -17
-17z"/>
<path d="M4006 2981 c-3 -5 1 -12 10 -15 22 -8 25 -4 9 11 -8 7 -16 9 -19 4z"/>
<path d="M3650 2829 c-7 -11 -10 -23 -7 -25 2 -2 9 7 15 21 14 30 7 33 -8 4z"/>
<path d="M3686 2752 c-3 -5 1 -9 9 -9 8 0 12 4 9 9 -3 4 -7 8 -9 8 -2 0 -6 -4
-9 -8z"/>
<path d="M3625 2660 c-3 -5 -1 -10 4 -10 6 0 11 5 11 10 0 6 -2 10 -4 10 -3 0
-8 -4 -11 -10z"/>
<path d="M4140 2551 c0 -6 4 -13 10 -16 6 -3 7 1 4 9 -7 18 -14 21 -14 7z"/>
<path d="M3860 2516 c7 -7 13 -7 20 0 6 6 3 10 -10 10 -13 0 -16 -4 -10 -10z"/>
<path d="M4250 2470 c6 -11 13 -20 16 -20 2 0 0 9 -6 20 -6 11 -13 20 -16 20
-2 0 0 -9 6 -20z"/>
<path d="M3740 2470 c0 -5 -8 -7 -17 -3 -10 3 -15 3 -12 -1 4 -4 16 -8 27 -11
15 -2 19 0 15 11 -6 16 -13 19 -13 4z"/>
<path d="M4060 2411 c0 -6 4 -13 10 -16 6 -3 7 1 4 9 -7 18 -14 21 -14 7z"/>
<path d="M3325 2320 c-3 -5 -1 -10 5 -10 6 0 8 -6 4 -12 -4 -7 -3 -9 1 -5 12
10 15 37 5 37 -5 0 -12 -4 -15 -10z"/>
<path d="M3981 2307 c-13 -21 -12 -21 5 -5 10 10 16 20 13 22 -3 3 -11 -5 -18
-17z"/>
<path d="M4246 1937 c3 -10 9 -15 12 -12 3 3 0 11 -7 18 -10 9 -11 8 -5 -6z"/>
<path d="M2661 3147 c-5 -5 -23 -11 -38 -12 -15 -1 -35 -3 -44 -3 -9 -1 -26
-11 -38 -21 -21 -18 -22 -26 -21 -185 2 -162 -1 -186 -21 -186 -6 0 -7 5 -4
10 3 6 2 10 -3 10 -5 0 -10 69 -11 156 -1 85 -5 162 -8 170 -7 20 -60 17 -108
-5 -22 -11 -35 -20 -29 -20 6 -1 11 -8 11 -16 0 -8 -5 -11 -10 -8 -7 4 -8 -1
-3 -13 4 -10 10 -176 13 -369 7 -485 6 -475 23 -485 8 -6 11 -10 5 -10 -9 -1
23 -24 35 -25 3 -1 21 -9 40 -20 39 -21 74 -30 66 -16 -4 5 -1 11 5 13 8 3 13
49 15 138 3 120 6 135 21 138 17 2 18 -10 17 -165 -1 -160 0 -169 20 -188 25
-23 101 -60 91 -45 -3 5 1 10 10 10 9 0 13 5 10 10 -3 5 -1 10 5 10 9 0 10
142 6 553 -3 303 -6 557 -7 564 -3 16 -35 23 -48 10z m29 -577 c0 -308 -2
-560 -5 -560 -2 0 -21 12 -42 26 l-38 25 -5 177 -5 177 -29 10 c-24 8 -31 6
-48 -14 -17 -22 -19 -38 -16 -158 2 -73 1 -133 -1 -133 -2 0 -30 15 -62 32
l-59 33 0 235 c0 129 -3 326 -7 437 l-6 201 39 11 c21 6 43 11 47 11 4 0 7
-71 7 -157 -1 -87 -1 -166 0 -175 0 -26 37 -42 66 -29 23 10 24 12 26 193 l3
183 50 8 c28 4 54 12 60 18 5 5 13 9 17 9 4 0 8 -252 8 -560z"/>
<path d="M2405 2710 c-4 -6 1 -7 11 -3 10 4 15 2 11 -4 -3 -5 0 -10 8 -10 11
0 12 4 4 14 -14 15 -26 17 -34 3z"/>
<path d="M2625 2421 c-3 -5 -2 -12 3 -15 5 -3 9 1 9 9 0 17 -3 19 -12 6z"/>
<path d="M2035 3080 c-3 -5 -1 -10 6 -10 8 0 7 -5 -2 -17 -13 -16 -12 -17 3
-5 9 8 14 20 11 28 -6 17 -10 17 -18 4z"/>
<path d="M4223 3055 c0 -8 4 -12 9 -9 5 3 6 10 3 15 -9 13 -12 11 -12 -6z"/>
<path d="M2235 3041 c-11 -5 -23 -7 -27 -4 -5 2 -8 -1 -8 -6 0 -6 -5 -11 -11
-11 -6 0 -17 -6 -25 -14 -8 -8 -22 -13 -32 -11 -11 2 -19 -3 -19 -11 0 -11 4
-11 16 -2 9 7 -1 -5 -21 -26 -21 -22 -40 -47 -43 -57 -4 -11 -10 -19 -14 -19
-8 0 -36 -71 -33 -82 1 -5 -3 -8 -8 -8 -5 0 -9 -3 -8 -7 3 -13 -12 -83 -44
-202 -16 -63 -31 -124 -34 -135 -4 -26 -33 -146 -53 -222 -6 -23 -14 -76 -18
-119 -5 -62 -4 -77 6 -70 10 5 11 2 6 -14 -3 -11 -2 -21 2 -21 5 0 19 -18 32
-40 12 -22 25 -40 29 -40 4 0 25 -16 47 -35 22 -19 48 -35 57 -35 9 0 19 -4
22 -9 3 -5 23 -12 43 -16 21 -3 48 -13 61 -21 12 -8 28 -12 34 -8 7 4 8 3 4
-4 -5 -8 1 -12 18 -12 14 0 28 -5 31 -10 4 -6 11 -8 16 -5 5 4 9 2 9 -4 0 -6
7 -7 17 -4 12 5 14 3 8 -7 -5 -7 -4 -11 1 -7 5 3 32 -5 59 -18 43 -21 66 -24
163 -24 62 -1 121 3 131 9 10 5 25 26 34 47 8 21 26 48 39 60 47 45 48 46 14
77 -17 15 -43 33 -58 38 -16 6 -28 14 -28 20 0 5 -4 6 -10 3 -5 -3 -10 -2 -10
4 0 5 -16 15 -36 21 -27 9 -33 15 -23 21 10 6 8 9 -8 9 -12 0 -29 7 -37 16 -9
8 -20 12 -26 9 -5 -3 -10 -1 -10 5 0 6 -4 9 -8 6 -5 -3 -18 4 -30 14 -12 11
-29 20 -38 20 -10 0 -15 3 -11 6 5 6 -95 63 -118 67 -13 3 -45 37 -45 49 0 4
5 9 10 9 6 1 15 3 20 4 6 1 14 3 19 4 25 3 26 38 15 546 -3 160 -9 264 -16
272 -12 15 -24 15 -53 4z m39 -223 c3 -117 7 -295 9 -395 2 -181 2 -182 -19
-177 -27 7 -54 -19 -54 -52 0 -17 11 -31 38 -47 42 -27 410 -235 459 -260 l31
-17 -39 -39 c-21 -21 -42 -52 -45 -67 l-5 -29 -122 2 -122 1 -185 72 c-102 40
-196 78 -210 85 -33 18 -84 72 -104 113 -37 73 -33 107 48 439 84 346 103 404
150 466 26 35 134 114 157 116 4 1 10 -95 13 -211z"/>
<path d="M2209 2963 c-13 -16 -12 -17 4 -4 9 7 17 15 17 17 0 8 -8 3 -21 -13z"/>
<path d="M2193 1875 c0 -8 4 -12 9 -9 5 3 6 10 3 15 -9 13 -12 11 -12 -6z"/>
<path d="M2224 1876 c1 -8 5 -18 8 -22 4 -3 5 1 4 10 -1 8 -5 18 -8 22 -4 3
-5 -1 -4 -10z"/>
<path d="M2380 1786 c0 -2 7 -7 16 -10 8 -3 12 -2 9 4 -6 10 -25 14 -25 6z"/>
<path d="M4290 2979 c0 -5 5 -7 10 -4 6 3 10 8 10 11 0 2 -4 4 -10 4 -5 0 -10
-5 -10 -11z"/>
<path d="M1945 2969 c-4 -6 -5 -12 -2 -15 2 -3 7 2 10 11 7 17 1 20 -8 4z"/>
<path d="M3285 1861 c-4 -3 -10 -6 -13 -7 -55 -8 -117 -68 -105 -101 18 -50
27 -53 189 -53 125 0 155 3 168 16 18 17 21 44 6 44 -5 0 -10 6 -10 14 0 8
-24 32 -52 53 -47 34 -59 38 -115 39 -34 1 -65 -1 -68 -5z m129 -35 c32 -13
106 -72 106 -85 0 -3 -72 -6 -159 -6 -157 0 -160 0 -164 22 -5 27 4 35 64 62
52 24 107 26 153 7z"/>
<path d="M2815 1828 c-14 -11 -25 -17 -25 -13 0 3 -9 1 -20 -5 -11 -6 -20 -17
-20 -25 0 -8 -4 -15 -10 -15 -14 0 -12 -32 4 -52 12 -16 33 -18 177 -18 144 0
166 2 179 18 17 19 22 62 8 62 -5 0 -6 6 -2 13 4 6 4 9 -1 5 -4 -4 -13 -4 -19
1 -25 19 -125 45 -183 47 -49 2 -68 -2 -88 -18z m218 -35 c47 -18 74 -39 64
-49 -8 -9 -347 -12 -347 -4 0 13 56 58 85 69 38 14 143 5 198 -16z"/>
<path d="M1866 1822 c-3 -5 1 -9 9 -9 8 0 12 4 9 9 -3 4 -7 8 -9 8 -2 0 -6 -4
-9 -8z"/>
<path d="M1768 1730 c-120 -15 -227 -94 -282 -210 -29 -60 -31 -73 -31 -170 1
-95 3 -111 30 -165 52 -108 150 -183 267 -205 30 -6 364 -10 804 -10 818 0
784 -2 784 54 0 45 -5 46 -371 46 -314 0 -391 -5 -343 -24 10 -4 13 -2 8 7 -6
9 -5 9 7 0 11 -9 96 -12 325 -12 170 0 314 -1 319 -2 6 -1 12 -1 15 -1 3 0 7
-8 7 -19 2 -19 -12 -19 -772 -19 -687 1 -780 3 -822 17 -27 9 -54 23 -61 30
-7 7 -17 13 -22 13 -5 0 -22 13 -37 28 -92 93 -117 158 -110 282 2 47 12 101
20 120 24 51 67 126 67 115 0 -5 6 -1 13 10 8 10 19 15 25 11 6 -3 14 -1 18 5
5 8 2 10 -7 5 -8 -4 -5 -1 6 8 11 8 25 19 30 23 6 5 19 7 30 5 15 -2 16 -1 7
6 -23 15 25 20 236 21 187 2 240 8 213 26 -16 9 -300 13 -373 5z"/>
<path d="M1733 1653 c-26 -7 -49 -17 -51 -23 -3 -7 -12 -4 -25 7 -19 16 -20
16 -8 1 10 -13 10 -18 2 -18 -7 0 -10 -4 -7 -9 3 -4 -6 -13 -19 -19 -14 -7
-25 -19 -25 -27 0 -9 -4 -14 -8 -11 -7 4 -14 -6 -53 -88 -8 -17 -14 -60 -14
-105 0 -83 4 -103 25 -141 7 -14 11 -26 9 -26 -2 -1 12 -20 31 -43 34 -40 94
-85 115 -86 6 -1 19 -6 30 -11 11 -6 39 -10 62 -9 23 0 40 -2 37 -6 -2 -4 4
-5 13 -3 10 2 117 5 239 7 144 3 228 9 243 16 12 7 32 11 44 10 12 -1 34 3 48
9 15 6 43 14 63 17 20 4 33 11 30 16 -3 5 2 6 11 2 10 -3 21 0 25 7 5 7 16 14
27 15 25 3 47 12 123 48 36 18 71 31 77 31 7 -1 10 2 7 7 -3 5 3 9 14 9 10 0
27 9 37 20 10 12 25 18 32 15 8 -2 11 0 8 5 -3 6 0 10 8 10 8 0 20 7 27 15 7
9 15 13 17 11 4 -4 64 37 109 74 7 5 15 6 18 3 3 -4 6 -1 6 5 0 7 7 12 15 12
8 0 15 4 15 8 0 9 91 57 103 54 5 -2 6 1 3 6 -3 5 17 19 44 32 28 13 50 27 50
32 0 4 12 11 28 14 15 4 43 15 62 26 19 10 41 18 48 18 7 0 10 4 7 10 -3 5 1
10 9 10 16 0 17 32 3 47 -4 4 -381 7 -837 8 -617 0 -842 -3 -877 -12z m1702
-21 c-6 -5 -26 -15 -45 -23 -74 -29 -257 -133 -384 -219 -213 -144 -442 -247
-666 -300 -72 -17 -119 -20 -316 -20 -254 0 -299 7 -371 59 -27 19 -51 51 -72
92 -57 114 -37 252 50 337 45 44 82 63 144 72 70 10 1671 12 1660 2z"/>
<path d="M1649 1523 c-13 -16 -12 -17 4 -4 9 7 17 15 17 17 0 8 -8 3 -21 -13z"/>
<path d="M1746 1494 c-19 -18 -21 -55 -4 -72 31 -31 108 -4 108 37 0 43 -72
68 -104 35z m74 -39 c0 -11 -13 -12 -54 -6 -5 0 -3 7 3 15 14 16 51 10 51 -9z"/>
<path d="M1927 1492 c-21 -23 -22 -46 -1 -66 13 -14 60 -16 354 -16 294 0 341
2 354 16 21 21 20 47 -2 67 -17 15 -56 17 -354 17 -312 0 -336 -1 -351 -18z
m683 -23 c11 -8 12 -12 2 -16 -6 -2 -10 -8 -8 -12 3 -3 -8 -6 -22 -5 -15 1
-165 3 -334 3 -241 1 -307 4 -305 14 1 6 7 15 12 19 16 12 638 8 655 -3z"/>
<path d="M2914 1384 c-18 -14 -18 -15 4 -4 12 6 22 13 22 15 0 8 -5 6 -26 -11z"/>
<path d="M2566 1227 c3 -10 9 -15 12 -12 3 3 0 11 -7 18 -10 9 -11 8 -5 -6z"/>
<path d="M3343 1435 c0 -7 6 -11 14 -8 7 3 13 6 13 8 0 2 -6 5 -13 8 -8 3 -14
-1 -14 -8z"/>
<path d="M3105 1269 c-4 -6 -5 -12 -2 -15 2 -3 7 2 10 11 7 17 1 20 -8 4z"/>
<path d="M4566 1162 c-3 -4 4 -9 15 -9 23 -2 25 3 4 10 -8 4 -16 3 -19 -1z"/>
<path d="M2807 1119 c7 -7 15 -10 18 -7 3 3 -2 9 -12 12 -14 6 -15 5 -6 -5z"/>
<path d="M1536 1032 c-3 -5 1 -9 9 -9 8 0 12 4 9 9 -3 4 -7 8 -9 8 -2 0 -6 -4
-9 -8z"/>
<path d="M3545 970 c-4 -6 -10 -8 -15 -5 -4 3 -6 -5 -2 -17 4 -16 7 -18 10 -8
3 8 9 21 15 28 5 6 7 12 4 12 -3 0 -9 -5 -12 -10z"/>
<path d="M3563 952 c-9 -15 -7 -18 13 -18 19 0 21 3 11 16 -6 8 -12 16 -12 17
0 1 -6 -6 -12 -15z"/>
<path d="M4620 939 c0 -5 5 -7 10 -4 6 3 10 8 10 11 0 2 -4 4 -10 4 -5 0 -10
-5 -10 -11z"/>
</g>
</svg>
