<?xml version="1.0" standalone="no"?>
<!DOCTYPE svg PUBLIC "-//W3C//DTD SVG 20010904//EN"
 "http://www.w3.org/TR/2001/REC-SVG-20010904/DTD/svg10.dtd">
<svg version="1.0" xmlns="http://www.w3.org/2000/svg"
 width="600.000000pt" height="597.000000pt" viewBox="0 0 600.000000 597.000000"
 preserveAspectRatio="xMidYMid meet">
<g transform="translate(0.000000,597.000000) scale(0.100000,-0.100000)"
fill="#D4A843" stroke="none">
<path d="M3025 5139 c-390 -50 -727 -329 -848 -704 -37 -113 -47 -182 -47
-314 0 -136 11 -210 45 -317 67 -204 192 -381 354 -501 43 -32 86 -63 97 -69
10 -7 16 -15 13 -18 -4 -4 -60 -16 -125 -26 -315 -51 -459 -132 -539 -302 -49
-103 -189 -675 -189 -773 -2 -158 79 -269 246 -337 l81 -33 -184 -6 c-223 -8
-286 -26 -364 -105 -85 -85 -120 -182 -113 -309 11 -174 122 -306 290 -345 26
-6 338 -10 804 -10 725 0 762 1 777 18 20 22 22 55 4 71 -9 7 -123 12 -353 13
l-339 3 45 19 c103 44 264 134 397 222 241 159 424 246 623 295 91 23 110 24
450 24 340 0 357 -1 401 -21 106 -49 161 -136 162 -254 1 -98 -16 -145 -77
-206 -85 -84 -84 -84 -597 -84 -434 0 -438 0 -453 -21 -16 -23 -12 -47 12 -67
23 -18 854 -17 933 2 76 17 137 55 192 116 65 72 90 143 89 255 0 114 -23 180
-91 256 -91 102 -180 129 -431 129 l-145 1 71 28 c95 37 135 63 183 118 55 62
81 135 81 226 -1 94 -141 671 -188 771 -43 91 -118 168 -206 211 -84 41 -218
78 -345 95 -50 7 -91 16 -91 19 0 3 36 30 79 59 424 280 573 853 341 1312 -51
102 -107 178 -195 266 -224 225 -537 332 -850 293z m213 -99 c325 -37 585
-211 735 -490 193 -359 119 -814 -180 -1101 -66 -64 -186 -150 -229 -163 -25
-8 -49 16 -98 97 l-35 59 53 52 53 53 55 -5 c50 -4 58 -2 91 28 20 17 39 41
42 53 4 12 27 66 52 121 68 146 68 215 2 271 -28 23 -29 27 -29 118 0 187 -53
289 -221 423 -62 49 -68 58 -87 121 -40 131 -120 193 -258 201 -170 9 -283
-72 -308 -223 -9 -49 -16 -59 -89 -114 -144 -110 -214 -260 -205 -443 2 -60 0
-70 -18 -83 -32 -22 -47 -68 -42 -129 4 -49 31 -114 113 -276 16 -32 89 -70
135 -70 28 0 41 -8 67 -39 l32 -39 -35 -58 c-19 -33 -48 -72 -65 -89 l-29 -30
-46 25 c-129 70 -266 209 -350 357 -87 153 -119 297 -111 497 9 239 90 426
257 596 180 184 364 265 650 289 8 0 52 -3 98 -9z m22 -278 c41 -20 76 -69 90
-126 17 -70 40 -103 99 -145 76 -53 147 -131 173 -188 33 -75 39 -273 8 -273
-6 0 -10 30 -10 66 0 88 -16 136 -62 188 -73 84 -148 93 -274 34 -82 -38 -140
-36 -235 10 -107 52 -191 40 -265 -40 -50 -53 -67 -95 -72 -182 -4 -70 -6 -77
-18 -61 -28 38 -14 183 26 269 23 48 105 136 163 174 45 30 82 90 92 148 9 60
39 102 88 124 54 25 149 26 197 2z m-234 -534 c61 -29 78 -33 154 -33 75 1 93
5 150 33 78 38 99 40 138 7 51 -42 54 -63 50 -297 -3 -178 -7 -220 -22 -253
-33 -72 -75 -123 -135 -162 -181 -121 -420 -55 -517 142 -29 59 -29 62 -32
260 -4 226 1 258 53 304 46 40 75 39 161 -1z m694 -293 c18 -21 5 -78 -36
-155 -18 -36 -40 -82 -48 -102 -8 -21 -22 -38 -30 -38 -19 0 -19 -4 -1 67 8
31 15 90 15 130 l0 73 38 19 c45 25 47 25 62 6z m-1043 -7 c33 -12 33 -12 33
-79 0 -64 11 -145 25 -181 4 -10 3 -18 -3 -18 -6 0 -14 10 -18 23 -3 12 -26
62 -50 111 -41 82 -53 133 -37 149 9 9 11 9 50 -5z m333 -540 c70 -27 231 -30
297 -5 40 15 42 15 48 -3 3 -10 23 -45 45 -79 l39 -61 -20 -67 c-82 -267 -293
-463 -567 -527 l-61 -14 -3 276 -3 277 55 61 c40 44 115 151 115 164 0 0 25
-10 55 -22z m564 -361 c-102 -379 -346 -692 -684 -876 -41 -22 -81 -41 -88
-41 -10 0 -12 18 -10 72 l3 71 61 17 c87 23 164 63 254 131 99 75 133 114 124
143 -17 55 -52 48 -142 -29 -77 -66 -209 -140 -269 -151 l-33 -6 0 86 c0 96
-10 84 94 106 145 31 304 120 413 232 100 101 146 172 198 306 l28 71 37 -21
37 -22 -23 -89z m-884 -451 c0 -322 -4 -547 -9 -551 -5 -3 -26 4 -45 16 l-36
21 0 174 c0 161 -1 174 -19 184 -28 14 -38 13 -61 -10 -18 -18 -20 -33 -20
-156 l0 -135 -51 27 c-28 16 -54 35 -58 43 -5 9 -11 208 -14 443 l-6 427 36
10 c26 7 39 7 44 0 3 -6 7 -84 8 -173 1 -137 4 -163 18 -173 22 -17 35 -16 59
1 17 13 19 30 22 193 l4 180 51 10 c29 5 58 11 65 11 9 2 12 -113 12 -542z
m1137 499 c19 -4 21 -10 16 -43 -26 -183 -94 -340 -194 -449 -22 -24 -39 -51
-39 -62 0 -26 26 -51 52 -51 40 0 143 133 200 258 33 72 78 237 78 283 0 36
15 37 82 3 l51 -26 -7 -71 c-23 -258 -147 -502 -321 -635 -70 -53 -75 -59 -75
-89 0 -27 33 -47 64 -39 36 9 169 129 224 202 99 131 181 329 198 472 3 34 11
62 16 62 22 0 62 -125 133 -415 44 -180 76 -332 76 -362 0 -57 -28 -133 -64
-171 -30 -33 -70 -52 -275 -132 l-177 -70 -122 0 -123 0 -13 33 c-8 17 -26 46
-41 64 l-27 32 42 21 42 22 96 -32 c121 -40 276 -53 304 -26 22 22 22 63 0 74
-10 5 -56 12 -103 15 -85 5 -180 24 -180 36 0 3 70 46 155 95 86 50 157 98
161 108 9 28 -5 57 -31 64 -18 5 -85 -30 -299 -155 l-276 -161 -68 6 c-80 7
-139 -6 -203 -47 -27 -17 -53 -27 -63 -23 -24 9 -19 17 24 37 75 35 190 116
254 180 113 114 144 197 79 213 -28 8 -26 10 -106 -92 -47 -59 -126 -127 -201
-172 -83 -51 -215 -105 -267 -110 -58 -5 -109 18 -109 51 0 18 16 29 88 62
386 177 683 544 798 987 9 35 18 66 20 69 3 6 68 -2 131 -16z m-1548 -571 l1
-251 -30 -6 c-32 -7 -51 -48 -33 -75 5 -8 117 -76 249 -151 131 -75 245 -140
252 -144 10 -7 4 -18 -22 -48 -20 -21 -38 -50 -42 -64 l-6 -25 -123 0 -122 0
-203 79 c-216 85 -251 107 -293 186 -35 66 -29 138 37 405 76 311 102 403 126
451 28 54 89 113 147 143 l48 24 6 -137 c4 -75 7 -249 8 -387z m1134 -677 c36
-16 97 -64 97 -78 0 -5 -68 -9 -155 -9 l-155 0 0 24 c0 19 11 30 52 50 58 29
112 33 161 13z m-375 -39 c31 -13 56 -27 54 -33 -3 -12 -332 -19 -332 -7 0 14
32 40 70 57 45 20 131 13 208 -17z m392 -152 c0 -3 -55 -32 -122 -66 -68 -34
-197 -110 -288 -170 -251 -164 -440 -251 -662 -305 -94 -23 -122 -25 -334 -25
-255 0 -299 7 -370 59 -22 17 -53 54 -70 83 -26 48 -29 62 -29 143 0 105 18
148 85 209 47 42 76 56 140 66 46 8 1650 13 1650 6z"/>
<path d="M1745 1494 c-9 -9 -15 -28 -13 -43 6 -51 101 -56 114 -5 13 51 -62
87 -101 48z"/>
<path d="M1927 1492 c-21 -23 -22 -46 -1 -66 13 -14 59 -16 353 -16 315 0 339
1 354 18 22 24 21 45 -1 65 -17 15 -56 17 -354 17 -312 0 -336 -1 -351 -18z"/>
</g>
</svg>
